<?xml version="1.0" standalone="no"?>
<!DOCTYPE svg PUBLIC "-//W3C//DTD SVG 20010904//EN"
 "http://www.w3.org/TR/2001/REC-SVG-20010904/DTD/svg10.dtd">
<svg version="1.0" xmlns="http://www.w3.org/2000/svg"
 width="1025.000000pt" height="1025.000000pt" viewBox="0 0 1025.000000 1025.000000"
 preserveAspectRatio="xMidYMid meet">
<metadata>
Created by potrace 1.11, written by Peter Selinger 2001-2013
</metadata>
<g transform="translate(0.000000,1025.000000) scale(0.100000,-0.100000)"
fill="#000000" stroke="none">
<path d="M1820 10237 c0 -13 47 -187 66 -243 160 -478 524 -940 1069 -1354 97
-74 476 -330 488 -330 3 0 34 -18 71 -40 238 -145 640 -342 1021 -502 104 -44
191 -81 192 -82 2 -1 -27 -10 -65 -20 -37 -9 -74 -19 -82 -21 -157 -40 -424
-120 -535 -161 -55 -20 -118 -43 -140 -51 -101 -37 -298 -125 -488 -218 l-118
-58 -137 31 c-75 17 -164 36 -197 42 -33 5 -71 12 -84 15 -13 2 -49 7 -80 10
-31 4 -63 8 -71 10 -29 8 -195 18 -316 19 -114 2 -249 -5 -342 -18 -23 -3 -60
-8 -81 -11 -78 -11 -283 -66 -379 -101 -173 -64 -333 -149 -523 -279 -97 -66
-355 -292 -345 -302 2 -2 30 9 62 25 33 16 118 53 189 82 72 29 139 56 150 61
110 47 411 131 516 144 30 4 56 8 59 10 3 2 44 7 90 11 228 19 383 -2 518 -68
59 -30 162 -115 162 -134 0 -5 -37 -36 -82 -69 -45 -33 -86 -65 -92 -70 -6 -6
-34 -29 -63 -51 -29 -23 -78 -63 -109 -90 -31 -27 -66 -57 -78 -67 -79 -68
-246 -241 -316 -327 -25 -30 -49 -60 -55 -66 -5 -6 -28 -36 -49 -66 l-39 -54
-131 -43 c-594 -195 -924 -406 -1130 -724 -88 -135 -180 -337 -174 -379 2 -16
18 0 70 70 242 324 538 507 806 499 83 -3 212 -32 212 -49 0 -4 -9 -31 -21
-60 -36 -91 -93 -278 -105 -348 -3 -14 -7 -32 -9 -40 -3 -8 -7 -33 -10 -55 -4
-22 -8 -47 -10 -55 -18 -64 -36 -293 -39 -471 l-2 -147 -54 -48 c-242 -216
-388 -466 -485 -829 -9 -33 -18 -71 -21 -85 -2 -14 -11 -56 -19 -95 -15 -73
-20 -104 -30 -195 -4 -30 -9 -66 -11 -80 -2 -14 -6 -56 -10 -95 -3 -38 -7 -81
-9 -94 -8 -50 10 -6 46 112 108 349 223 572 370 718 80 80 154 119 238 126 55
5 61 4 62 -13 1 -24 2 -30 29 -151 56 -252 158 -555 254 -753 31 -64 31 -70 9
-96 -174 -192 -282 -416 -327 -679 -7 -38 -17 -103 -22 -135 -19 -132 -24
-481 -10 -720 4 -74 8 -141 9 -147 1 -32 10 2 13 49 6 123 35 343 61 463 8 39
17 80 19 93 2 12 20 69 38 125 100 304 254 488 463 552 23 6 42 -19 231 -315
19 -30 52 -81 73 -113 22 -32 39 -60 39 -63 0 -3 5 -10 10 -17 31 -36 411
-639 446 -707 49 -96 98 -244 117 -350 3 -14 8 -41 12 -60 16 -85 29 -251 28
-362 l0 -78 2477 0 2478 0 7 28 c18 74 25 351 11 462 -14 107 -23 162 -32 192
-3 9 -7 25 -9 36 -22 117 -146 391 -241 532 -281 420 -784 826 -1489 1200 -44
23 -98 53 -120 65 -22 12 -148 77 -280 145 -397 203 -590 305 -705 373 -236
141 -349 231 -456 362 -178 218 -313 533 -350 815 -14 110 -5 289 17 347 6 15
10 28 9 28 -4 0 16 70 42 145 37 107 128 292 192 390 105 161 209 280 366 420
90 80 362 240 408 240 24 0 222 -181 279 -255 54 -71 99 -167 142 -305 109
-350 176 -524 266 -696 201 -385 520 -682 1120 -1044 162 -97 205 -117 307
-144 83 -22 109 -24 243 -21 83 2 159 5 170 8 30 7 82 15 220 37 38 6 71 13
73 14 1 2 -28 9 -65 16 -37 7 -77 14 -88 16 -11 2 -67 11 -125 20 -58 8 -127
20 -154 26 l-48 10 56 23 c84 34 154 91 221 180 43 58 40 66 -19 40 -150 -66
-329 -68 -517 -5 -69 23 -219 92 -219 101 0 3 28 13 63 22 78 19 232 76 332
123 41 19 75 36 75 37 0 2 -42 3 -92 3 -218 0 -400 33 -516 93 -47 24 -115 96
-175 184 -44 65 -97 166 -97 187 0 5 24 0 53 -11 73 -30 188 -29 354 1 l131
24 -115 38 c-252 83 -507 232 -630 368 -76 84 -267 466 -338 675 -40 119 -90
342 -80 353 2 2 255 -246 562 -551 625 -622 708 -703 808 -791 39 -33 72 -63
75 -66 17 -19 171 -138 260 -202 190 -135 381 -244 582 -331 57 -24 129 -54
161 -66 59 -22 270 -80 316 -87 500 -78 604 -128 864 -411 26 -29 47 -50 47
-48 0 22 -60 154 -96 212 -114 183 -247 267 -559 353 -44 12 -84 25 -88 29 -9
9 259 6 323 -4 188 -28 349 -79 500 -157 52 -27 100 -54 107 -60 8 -6 13 -6
13 -1 0 12 -129 139 -185 183 -90 71 -238 138 -353 160 -97 18 -151 21 -377
22 -285 0 -408 18 -618 89 -84 28 -308 132 -382 176 -56 34 -170 111 -195 132
-14 11 -30 24 -35 28 -45 34 -153 131 -215 194 -274 278 -493 511 -645 684
-50 57 -261 320 -316 395 -80 108 -231 330 -225 330 3 0 27 -7 53 -16 388
-127 653 -303 828 -549 52 -72 132 -229 142 -275 10 -51 21 -33 28 45 9 96 1
241 -19 330 -16 70 -65 202 -96 260 -35 65 -35 67 18 59 105 -15 232 -95 380
-243 93 -93 108 -109 193 -216 74 -93 249 -339 249 -350 0 -10 112 -176 116
-172 7 6 5 344 -1 407 -7 63 -30 184 -50 263 -9 33 -7 33 97 7 301 -77 499
-260 707 -654 l20 -40 30 65 c81 173 74 352 -20 511 l-29 48 28 -6 c75 -18
199 -73 230 -101 7 -7 17 -13 22 -13 16 0 138 -128 184 -193 55 -78 117 -195
190 -362 32 -71 61 -134 65 -138 4 -4 22 52 40 125 42 173 81 301 94 310 16
10 81 -27 111 -63 81 -95 129 -270 138 -496 1 -31 6 -50 12 -48 6 2 23 6 38 9
23 5 32 20 67 109 90 232 95 255 99 520 3 205 1 245 -14 290 -88 268 -311 511
-633 692 -100 56 -105 58 -448 196 -263 106 -314 127 -493 211 -99 46 -243
127 -248 140 -2 4 -9 8 -16 8 -14 0 -89 76 -104 105 -7 15 -3 37 19 92 81 201
32 304 -276 574 -61 53 -159 150 -220 214 -60 65 -126 135 -145 155 -19 20
-86 93 -149 161 -542 587 -972 911 -1436 1084 -55 20 -106 39 -115 41 -8 1
-62 16 -120 33 -138 39 -365 84 -490 96 -25 3 -63 7 -85 10 -148 18 -524 28
-573 16 -15 -4 30 -15 115 -29 393 -67 757 -180 1078 -337 579 -283 772 -611
521 -883 -57 -62 -185 -130 -273 -147 -16 -3 -39 -7 -53 -10 -77 -17 -263 -12
-428 10 -273 37 -757 184 -1257 383 -958 381 -1630 834 -2094 1407 -104 129
-236 329 -308 465 -7 14 -13 21 -13 17z m5076 -2726 c178 -34 343 -141 436
-282 30 -47 128 -224 128 -233 0 -2 -28 11 -62 29 -75 40 -100 45 -243 49
-137 4 -191 25 -281 111 -12 11 -57 54 -100 95 -99 95 -177 154 -250 190 -31
15 -52 30 -48 33 5 3 34 8 64 12 30 4 56 8 58 10 8 7 244 -3 298 -14z m2504
-1474 c93 -46 188 -146 208 -221 11 -38 8 -42 -21 -28 -12 6 -49 16 -82 22
-33 7 -78 22 -101 35 -52 31 -227 202 -211 208 30 12 174 0 207 -16z"/>
</g>
</svg>
